# xmcd CD database file generated by Grip 2.96
# 
# Track frame offsets:
#       150
#       10287
#       20310
#       31350
#       40312
#       52650
#       63997
#       74187
#       87237
#       98550
#       109635
#       118597
# 
# Disc length: 1762 seconds
# 
# Revision: 0
# Processed by: cddbd v1.4PL0 Copyright (c) Steve Scherf et al.
# Submitted via: Grip 2.96
# 
DISCID=9406e00c
DTITLE=Patsy Cline - The Patsy Cline Collection - Disc 3
DYEAR=1900
DGENRE=
TTITLE0=I Love You So Much It Hurts
TTITLE1=Seven Lonely Days
TTITLE2=South Of The Border (Down Mexico Way)
TTITLE3=Anytime
TTITLE4=Poor Man's Roses
TTITLE5=I'll Sail My Ship Alone
TTITLE6=Tra Le La Le La Triangle
TTITLE7=Life's A Railway To Heaven
TTITLE8=Three Cigarettes In An Ashtray
TTITLE9=There He Goes
TTITLE10=You Were Only Fooling (While I Was Falling In Love)
TTITLE11=She's Got You
EXTD=
EXTT0=
EXTT1=
EXTT2=
EXTT3=
EXTT4=
EXTT5=
EXTT6=
EXTT7=
EXTT8=
EXTT9=
EXTT10=
EXTT11=
PLAYORDER=
